<svg width="1136" height="568" xmlns="http://www.w3.org/2000/svg" xmlns:xlink="http://www.w3.org/1999/xlink" overflow="hidden"><defs><clipPath id="clip0"><rect x="-1" y="94" width="1136" height="568"></rect></clipPath><clipPath id="clip1"><rect x="0" y="94" width="567" height="284"></rect></clipPath><clipPath id="clip2"><rect x="0" y="94" width="567" height="284"></rect></clipPath><clipPath id="clip3"><rect x="0" y="94" width="567" height="284"></rect></clipPath><clipPath id="clip4"><rect x="0" y="94" width="568" height="284"></rect></clipPath><clipPath id="clip5"><path d="M283.5 236 567 236 567 378ZM283.5 236 283.5 378 0 378ZM283.5 236 0 236 0 94ZM283.5 236 283.5 94 567 94Z"></path></clipPath></defs><g clip-path="url(#clip0)" transform="translate(1 -94)"><rect x="0" y="94" width="1134" height="567" fill="#012169"></rect><path d="M807 193.703 839.849 193.703 850 162 860.151 193.703 893 193.703 866.424 213.297 876.575 245 850 225.406 823.425 245 833.576 213.297Z" fill="#FFFFFF" fill-rule="evenodd"></path><path d="M676 325.321 708.849 325.321 719 294 729.151 325.321 762 325.321 735.424 344.679 745.575 376 719 356.642 692.425 376 702.576 344.679Z" fill="#FFFFFF" fill-rule="evenodd"></path><path d="M924 293.265 953.412 293.266 962.5 265 971.588 293.266 1001 293.265 977.205 310.734 986.294 339 962.5 321.531 938.706 339 947.795 310.734Z" fill="#FFFFFF" fill-rule="evenodd"></path><path d="M802 532.523 839.051 532.523 850.5 497 861.949 532.523 899 532.523 869.025 554.477 880.475 590 850.5 568.045 820.525 590 831.975 554.477Z" fill="#FFFFFF" fill-rule="evenodd"></path><path d="M822 198.626 843.772 198.626 850.5 178 857.228 198.626 879 198.626 861.386 211.374 868.114 232 850.5 219.252 832.886 232 839.614 211.374Z" fill="#C8102E" fill-rule="evenodd"></path><path d="M691 330.626 712.772 330.626 719.5 310 726.228 330.626 748 330.626 730.386 343.374 737.114 364 719.5 351.252 701.886 364 708.614 343.374Z" fill="#C8102E" fill-rule="evenodd"></path><path d="M939 297.57 956.953 297.57 962.5 280 968.047 297.57 986 297.57 971.476 308.429 977.024 326 962.5 315.141 947.976 326 953.524 308.429Z" fill="#C8102E" fill-rule="evenodd"></path><path d="M818 537.064 842.828 537.064 850.5 513 858.172 537.064 883 537.064 862.914 551.936 870.586 576 850.5 561.127 830.414 576 838.086 551.936Z" fill="#C8102E" fill-rule="evenodd"></path><g clip-path="url(#clip1)"><g clip-path="url(#clip2)"><g clip-path="url(#clip3)"><g clip-path="url(#clip4)"><path d="M0 0 0 283.5 567 283.5 567 0Z" fill="#012169" transform="matrix(1 0 0 1.00176 0 94)"></path><path d="M0 0 567 283.5M567 0 0 283.5" stroke="#FFFFFF" stroke-width="56.7" transform="matrix(1 0 0 1.00176 0 94)"></path><g clip-path="url(#clip5)"><path d="M0 0 567 283.5M567 0 0 283.5" stroke="#C8102E" stroke-width="37.8" transform="matrix(1 0 0 1.00176 0 94)"></path></g><path d="M283.5 0 283.5 283.5M0 141.75 567 141.75" stroke="#FFFFFF" stroke-width="94.5" transform="matrix(1 0 0 1.00176 0 94)"></path><path d="M283.5 0 283.5 283.5M0 141.75 567 141.75" stroke="#C8102E" stroke-width="56.7" transform="matrix(1 0 0 1.00176 0 94)"></path></g></g></g></g></g></svg>